{"title":"Grease (1978) DVDRip XviD AC3 peaSoup","uid":8962724,"size":1317364855,"categoryP":"video","categoryS":"movies","magnet":"?xt=urn:btih:b06eda52f7e2e8cef2fc3ac668ed6a6104ced3e8&amp;dn=Grease+%281978%29+DVDRip+XviD+AC3+peaSoup&amp;tr=udp%3A%2F%2Ftracker.openbittorrent.com%3A80&amp;tr=udp%3A%2F%2Fopen.demonii.com%3A1337&amp;tr=udp%3A%2F%2Ftracker.coppersurfer.tk%3A6969&amp;tr=udp%3A%2F%2Fexodus.desync.com%3A6969","seeders":5,"leechers":2,"uploader":"peaSoup","files":-1,"time":1380149262,"description":"Storyline\n\nA musical about teens in love in the 50's! It's California, 1959 and greaser Danny Zuko and Australian Sandy Olsson are in love. They spend time at the beach, but when they go back to school, what either of them don't know is that they both now attend Rydell High. Danny's the leader of the T-Birds, a group of black-jacket greasers while Sandy hangs with the Pink Ladies, a group of pink-wearing girls led by Rizzo. When they clash at Rydell's first pep rally, Danny isn't the same Danny at the beach. They try to be like each other so they can be together.                      &lt;a href=&quot; http://imageshack.us/a/img35/9783/6u5e.jpg&quot; rel=&quot;nofollow&quot; target=&quot;_NEW&quot;&gt; http://imageshack.us/a/img35/9783/6u5e.jpg&lt;/a&gt;                                          &lt;a href=&quot; http://imageshack.us/a/img21/1161/w0q2.jpg&quot; rel=&quot;nofollow&quot; target=&quot;_NEW&quot;&gt; http://imageshack.us/a/img21/1161/w0q2.jpg&lt;/a&gt;                                          &lt;a href=&quot; http://imageshack.us/a/img197/7286/zziu.jpg&quot; rel=&quot;nofollow&quot; target=&quot;_NEW&quot;&gt; http://imageshack.us/a/img197/7286/zziu.jpg&lt;/a&gt;                                         &lt;a href=&quot; http://imageshack.us/a/img822/2691/20y1.jpg&quot; rel=&quot;nofollow&quot; target=&quot;_NEW&quot;&gt; http://imageshack.us/a/img822/2691/20y1.jpg&lt;/a&gt;                                                                     &lt;a href=&quot; http://imageshack.us/a/img854/6876/67rm.jpg&quot; rel=&quot;nofollow&quot; target=&quot;_NEW&quot;&gt; http://imageshack.us/a/img854/6876/67rm.jpg&lt;/a&gt;                                                                      Format                                   : AVI\nFormat/Info                              : Audio Video Interleave\nFormat profile                           : OpenDML\nFile size                                : 1.16 GiB\nDuration                                 : 1h 45mn\nOverall bit rate                         : 1 562 Kbps\nMovie name                               : Grease (1978) DVDRip XviD AC3 peaSoup\nWriting application                      : Lavf53.21.0\nOriginal source form/Name                : GREASE\n\nVideo\nID                                       : 0\nFormat                                   : MPEG-4 Visual\nFormat profile                           : Advanced Simple@L5\nFormat settings, BVOP                    : 2\nFormat settings, QPel                    : No\nFormat settings, GMC                     : No warppoints\nFormat settings, Matrix                  : Default (H.263)\nMuxing mode                              : Packed bitstream\nCodec ID                                 : XVID\nCodec ID/Hint                            : XviD\nDuration                                 : 1h 45mn\nBit rate                                 : 1 100 Kbps\nWidth                                    : 720 pixels\nHeight                                   : 306 pixels\nDisplay aspect ratio                     : 2.35:1\nFrame rate                               : 25.000 fps\nColor space                              : YUV\nChroma subsampling                       : 4:2:0\nBit depth                                : 8 bits\nScan type                                : Progressive\nCompression mode                         : Lossy\nBits/(Pixel*Frame)                       : 0.200\nStream size                              : 833 MiB (70%)\nWriting library                          : XviD 1.2.1 (UTC 2008-12-04)\n\nAudio\nID                                       : 1\nFormat                                   : AC-3\nFormat/Info                              : Audio Coding 3\nMode extension                           : CM (complete main)\nFormat settings, Endianness              : Big\nCodec ID                                 : 2000\nDuration                                 : 1h 45mn\nBit rate mode                            : Constant\nBit rate                                 : 448 Kbps\nChannel(s)                               : 6 channels\nChannel positions                        : Front: L C R, Side: L R, LFE\nSampling rate                            : 48.0 KHz\nBit depth                                : 16 bits\nCompression mode                         : Lossy\nStream size                              : 339 MiB (29%)\nAlignment                                : Aligned on interleaves\nInterleave, duration                     : 32 ms (0.80 video frame)\n\n                                                         \n\n","torrent":{"xt":"urn:btih:b06eda52f7e2e8cef2fc3ac668ed6a6104ced3e8","amp;dn":"Grease+%281978%29+DVDRip+XviD+AC3+peaSoup","amp;tr":["udp%3A%2F%2Ftracker.openbittorrent.com%3A80","udp%3A%2F%2Fopen.demonii.com%3A1337","udp%3A%2F%2Ftracker.coppersurfer.tk%3A6969","udp%3A%2F%2Fexodus.desync.com%3A6969"],"infoHash":"b06eda52f7e2e8cef2fc3ac668ed6a6104ced3e8","infoHashBuffer":{"type":"Buffer","data":[176,110,218,82,247,226,232,206,242,252,58,198,104,237,106,97,4,206,211,232]},"announce":[],"urlList":[]}}